# xmcd
#
# Track frame offsets: 
#        150
#        25202
#        53914
#        89046
#        107776
#        132888
#        155645
#        178657
#        204077
#        227524
#
# Disc length: 3404 seconds
#
# Revision: 0
# Processed by: cddbd v1.5.2PL0 Copyright (c) Steve Scherf et al.
# Submitted via: ExactAudioCopy v1.0b1
#
DISCID=800d4a0a
DTITLE=Dirty Basement Blues - Coming Clean
DYEAR=2014
DGENRE=Blues Rock
TTITLE0=When I'm Free
TTITLE1=Coming Home
TTITLE2=Get Up
TTITLE3=You Cursed Me
TTITLE4=Opinionated Blues
TTITLE5=Nail Driver
TTITLE6=Just Like Poison
TTITLE7=Back Of My Eyes
TTITLE8=Blues To You
TTITLE9=Walk In My Shadow
EXTD=
EXTT0=
EXTT1=
EXTT2=
EXTT3=
EXTT4=
EXTT5=
EXTT6=
EXTT7=
EXTT8=
EXTT9=
PLAYORDER=
